# xmcd
#
# Track frame offsets:
#	150
#	12195
#	22557
#	35411
#	48783
#	59497
#	75930
#	86663
#	97107
#	108342
#	127805
#	143294
#	162592
#	176674
#	187337
#
# Disc length: 2682 seconds
#
# Revision: 1
# Processed by: cddbd v1.5.2PL0 Copyright (c) Steve Scherf et al.
# Submitted via: audiograbber 1.83.01
#
DISCID=b20a780f
DTITLE=original artists - Las Vegas Evergreens - CD2
DYEAR=1900
DGENRE=Oldies
TTITLE0=Papa Loves Mambo - PERRY COMO
TTITLE1=Who's Sorry Now - CONNIE FRANCIS
TTITLE2=Spicks And Specks - BEE GEES
TTITLE3=If I Had A Hammer - TRINI LOPEZ
TTITLE4=Singing The Blues - GUY MITCHELL
TTITLE5=Moonlight in Vermont - CATERINA VALENTE
TTITLE6=Ebb Tide - GLEN CAMPBELL
TTITLE7=All I Have To Do Is Dream - THE EVERLY BROTHERS
TTITLE8=She's On The Ball - RAY CHARLES
TTITLE9=The Ballad Of Lucy Jordan - LEE HAZLEWOOD
TTITLE10=Unforgettable - NAT "KING" COLE
TTITLE11=Bright Eyes - DAVID ESSEX
TTITLE12=That's Amore - DEAN MARTIN
TTITLE13=Sweet Nothin's - BRENDA LEE
TTITLE14=Na Na, Hey Hey, Kiss Him Goodbye - LIBERACE
EXTD=
EXTT0=
EXTT1=
EXTT2=
EXTT3=
EXTT4=
EXTT5=
EXTT6=
EXTT7=
EXTT8=
EXTT9=
EXTT10=
EXTT11=
EXTT12=
EXTT13=
EXTT14=
PLAYORDER=
